HIERARCHY
ROOT pelvis
{
  OFFSET 0 100 0
  CHANNELS 6 Xposition Yposition Zposition Zrotation Xrotation Yrotation
  JOINT pelvis_right_femur
  {
    OFFSET -10.78128 -3.44521 -0.5502486
    CHANNELS 3 Zrotation Xrotation Yrotation
    JOINT right_femur_tibia
    {
      OFFSET -0.8047443 -44.0398 -0.1307829
      CHANNELS 3 Zrotation Xrotation Yrotation
      JOINT right_tibia_foot
      {
        OFFSET 3.006224 -47.83518 -5
        CHANNELS 3 Zrotation Xrotation Yrotation
        End Site
        {
          OFFSET 0 -5 15
        }
      }
    }
  }
  JOINT pelvis_left_femur
  {
    OFFSET 10.78128 -3.44521 -0.5502486
    CHANNELS 3 Zrotation Xrotation Yrotation
    JOINT left_femur_tibia
    {
      OFFSET 0.8047443 -44.0398 -0.1307829
      CHANNELS 3 Zrotation Xrotation Yrotation
      JOINT left_tibia_foot
      {
        OFFSET -4.370144 -48.10324 -4.275266
        CHANNELS 3 Zrotation Xrotation Yrotation
        End Site
        {
          OFFSET 0 -5 15
        }
      }
    }
  }
  JOINT pelvis_spine1
  {
    OFFSET 0 6.468898 -3.129235
    CHANNELS 3 Zrotation Xrotation Yrotation
    JOINT spine1
    {
      OFFSET 0 23.15396 4.99043
      CHANNELS 3 Zrotation Xrotation Yrotation
      JOINT spine2
      {
        OFFSET 0 20.79997 -5.064912
        CHANNELS 3 Zrotation Xrotation Yrotation
        JOINT neck
        {
          OFFSET 0 14.38658 9.616178
          CHANNELS 3 Zrotation Xrotation Yrotation
          End Site
          {
            OFFSET 0 20 0
          }
        }
      }
      JOINT right_manubrium
      {
        OFFSET -5.722621 16.35077 3.967754
        CHANNELS 3 Zrotation Xrotation Yrotation
        JOINT right_clavicle
        {
          OFFSET -13.16364 1.694482 -4.693211
          CHANNELS 3 Zrotation Xrotation Yrotation
          JOINT right_humerus
          {
            OFFSET -28.5034 -0.3100689 -2.792744
            CHANNELS 3 Zrotation Xrotation Yrotation
            JOINT right_radius
            {
              OFFSET -25.15693 0.02248979 -1.271978
              CHANNELS 3 Zrotation Xrotation Yrotation
              End Site
              {
                OFFSET -15 0 0
              }
            }
          }
        }
      }
      JOINT left_manubrium
      {
        OFFSET 5.722621 16.35077 3.967754
        CHANNELS 3 Zrotation Xrotation Yrotation
        JOINT left_clavicle
        {
          OFFSET 13.16364 1.694482 -4.693211
          CHANNELS 3 Zrotation Xrotation Yrotation
          JOINT left_humerus
          {
            OFFSET 29.39168 -1.063119 -2.237045
            CHANNELS 3 Zrotation Xrotation Yrotation
            JOINT left_radius
            {
              OFFSET 24.59957 -0.9528479 0.9047498
              CHANNELS 3 Zrotation Xrotation Yrotation
              End Site
              {
                OFFSET 15 -0 -0
              }
            }
          }
        }
      }
    }
  }
}
MOTION
Frames: 20
Frame Time: 0.0416666666667
0 103.5113 0 -0.07919637 0.5220154 0.1973661 3.785653 -15.43421 7.401705 2.315132e-09 34.81228 -1.212176e-09 -8.848291 -16.28211 -2.116483 -6.262013 6.15283 -23.16926 -1.771364e-09 4.326406 2.696536e-09 4.795512 -17.73431 24.23619 -3.241721 -1.791573 3.740483 2.427645 7.187624 -6.496503 1.543574 22.90412 7.009831 3.70331 -25.22165 9.410784 6.01279 -19.18549 10.79083 83.84153 37.1027 -15.19519 1.89228e-09 -4.92688e-10 16.51015 -6.31444 6.681738 5.878181 5.15646 -17.2646 -0.8505744 -97.24274 31.39889 24.67841 6.230569e-11 -4.537587e-10 -11.69901 3.503366 18.02233 10.29895
0.3324137 103.5674 1.810662 -0.01089506 0.5851194 0.4994218 3.611498 -16.94155 7.457106 2.182868e-09 37.12856 -1.223325e-09 -8.540601 -14.93217 -2.271943 -6.463827 7.792521 -23.34592 -1.812522e-09 4.178764 2.424383e-09 4.883405 -18.23336 24.03868 -3.384781 -1.825661 3.554453 2.435731 7.260725 -6.695733 1.497776 22.86914 7.204573 3.781751 -25.30772 9.538818 6.255136 -18.88135 10.7963 84.50865 37.38546 -16.00646 1.735943e-09 -4.156748e-10 15.979 -6.443816 6.853005 5.85394 5.151382 -17.38399 -0.9487288 -96.93186 31.53772 24.10528 2.515902e-11 -3.731825e-10 -12.27907 3.439233 17.79438 10.52996
0.6677764 103.684 3.70647 0.01083219 0.7513398 0.8776897 3.579725 -18.70703 7.396882 1.987578e-09 37.93232 -1.149826e-09 -8.307477 -13.71294 -2.392803 -6.543845 9.353689 -23.2605 -1.750197e-09 4.111391 2.129054e-09 4.978889 -18.68663 23.64727 -3.45146 -1.890874 3.405011 2.494673 7.403054 -6.979505 1.416943 22.7294 7.372778 3.847625 -25.41701 9.5875 6.40705 -18.65836 10.83573 85.21808 37.5536 -17.00927 1.544727e-09 -3.386504e-10 15.4165 -6.654007 7.131386 5.826483 5.211169 -17.71503 -1.110323 -96.36644 31.45149 23.37691 -2.048746e-12 -2.965348e-10 -13.28943 3.542374 17.52872 10.53528
0.993023 103.7812 5.730888 -0.01342154 1.016662 1.299815 3.690709 -20.70505 7.228984 1.728634e-09 37.10297 -9.920559e-10 -8.110182 -12.66044 -2.488008 -6.505131 10.77239 -22.87218 -1.56947e-09 4.145177 1.806944e-09 5.058717 -19.09055 23.05181 -3.439069 -1.982863 3.308838 2.604886 7.623684 -7.353563 1.302104 22.48951 7.51405 3.896915 -25.54322 9.556575 6.464574 -18.53364 10.91933 86.02611 37.59937 -18.21965 1.313525e-09 -2.607558e-10 14.85331 -6.997668 7.558105 5.820886 5.341348 -18.27479 -1.338158 -95.59575 31.10902 22.50458 -1.706018e-11 -2.245941e-10 -14.78604 3.796876 17.19316 10.34125
1.289276 103.7772 7.901432 -0.08849497 1.357054 1.727041 3.946923 -22.8529 6.980497 1.469534e-09 34.61695 -7.92319e-10 -7.980626 -11.93104 -2.568119 -6.346719 12.03599 -22.24749 -1.294261e-09 4.301186 1.523753e-09 5.096857 -19.43993 22.30052 -3.346185 -2.083955 3.24978 2.764346 7.866958 -7.779971 1.172454 22.17146 7.60373 3.917017 -25.65399 9.449642 6.414622 -18.46332 11.01573 86.78822 37.51193 -19.51726 1.084343e-09 -2.012378e-10 14.27956 -7.362866 8.052683 5.790691 5.536831 -18.99365 -1.597106 -94.60206 30.58532 21.4737 -1.537853e-11 -1.74121e-10 -16.63274 4.180066 16.84101 9.94449
1.548363 103.6236 10.23931 -0.1989632 1.737962 2.129993 4.296571 -24.91814 6.694784 1.212609e-09 31.03063 -5.788379e-10 -7.882316 -11.40711 -2.619364 -6.116672 13.01566 -21.41247 -9.553101e-10 4.691313 1.241448e-09 5.081157 -19.66387 21.42167 -3.189716 -2.190981 3.245358 2.948958 8.14323 -8.228664 1.030387 21.78585 7.653123 3.916337 -25.74639 9.27684 6.296024 -18.45562 11.13092 87.45106 37.33052 -20.80077 8.438137e-10 -1.45363e-10 13.74508 -7.787484 8.618848 5.773959 5.75264 -19.80341 -1.87661 -93.48433 29.89398 20.42133 -4.705889e-12 -1.320023e-10 -18.66688 4.623844 16.43601 9.447754
1.767906 103.3057 12.77395 -0.3197805 2.089213 2.490215 4.684376 -26.76412 6.412446 9.659968e-10 26.99275 -3.777227e-10 -7.75376 -10.96863 -2.673828 -5.862326 13.72347 -20.4182 -5.925087e-10 5.486719 9.480868e-10 4.977078 -19.74188 20.46259 -2.994954 -2.283819 3.28869 3.131765 8.444926 -8.665855 0.892058 21.38112 7.672752 3.898938 -25.79394 9.06721 6.142592 -18.46846 11.25827 88.05493 37.07782 -22.02284 5.941836e-10 -8.828082e-11 13.24365 -8.296765 9.247801 5.789743 5.955603 -20.62982 -2.166385 -92.34387 29.09109 19.38646 9.242859e-12 -9.205377e-11 -20.74469 5.060667 15.95654 8.95017
1.950403 102.8546 15.5291 -0.4170532 2.302157 2.800321 5.043393 -28.18582 6.195315 7.53933e-10 23.40846 -2.201798e-10 -7.547787 -10.5616 -2.784642 -5.641429 14.19719 -19.4062 -2.771625e-10 6.888877 6.757816e-10 4.740811 -19.66883 19.54864 -2.800053 -2.326744 3.356413 3.27563 8.73066 -9.026036 0.7913298 21.05761 7.668556 3.868489 -25.76149 8.873515 5.994932 -18.42988 11.37635 88.65409 36.78665 -23.09006 3.692308e-10 -3.786588e-11 12.76752 -8.849582 9.871475 5.831564 6.10756 -21.34215 -2.433143 -91.36735 28.32359 18.42212 2.114595e-11 -5.705777e-11 -22.58984 5.400408 15.43859 8.573233
2.111959 102.3862 18.52834 -0.4786132 2.346458 3.065687 5.34145 -28.89418 6.101015 5.195909e-10 21.18247 -1.086713e-10 -7.291655 -9.922576 -2.915938 -5.512964 14.31325 -18.43901 -6.848144e-11 9.356122 3.458787e-10 4.370201 -19.28789 18.69223 -2.616606 -2.327746 3.464611 3.354717 9.032908 -9.275819 0.7236515 20.81769 7.662267 3.853089 -25.68606 8.702598 5.931256 -18.3323 11.50184 89.17672 36.54564 -23.92414 1.424912e-10 3.42508e-11 12.31938 -9.434123 10.46593 5.911259 6.126051 -21.85344 -2.673029 -90.64143 27.64878 17.72096 1.615721e-11 2.466796e-12 -23.94268 5.581808 14.86793 8.43124
2.272231 102.0641 21.76768 -0.5055869 2.208532 3.296292 5.562533 -28.7308 6.137633 2.469019e-10 20.75755 -4.57378e-11 -7.071354 -8.951779 -3.026222 -5.493017 14.04222 -17.6015 -1.598577e-12 13.03976 -4.8077e-11 3.89843 -18.51457 17.92503 -2.446503 -2.293934 3.599115 3.355623 9.340665 -9.377702 0.6898395 20.65089 7.64951 3.863201 -25.57687 8.548236 5.973476 -18.14979 11.6194 89.42828 36.38982 -24.40514 -7.88836e-11 1.342184e-10 11.87013 -9.946254 10.94119 5.986581 5.967131 -22.08437 -2.874204 -90.09616 27.12888 17.35222 -1.258193e-11 9.545608e-11 -24.56789 5.606936 14.2969 8.512697
2.444772 102.0061 25.27115 -0.5009902 1.864258 3.481802 5.754685 -27.59973 6.279453 -4.703263e-11 21.44391 -1.22562e-11 -6.855632 -7.897971 -3.141803 -5.511244 13.17256 -16.77721 -1.909195e-11 18.05375 -4.621439e-10 3.278038 -17.31551 17.25553 -2.261072 -2.206887 3.801524 3.283998 9.667493 -9.333691 0.6993371 20.59122 7.60554 3.880228 -25.41046 8.399126 6.066043 -17.93804 11.74918 89.56069 36.24555 -24.56509 -2.809788e-10 2.435101e-10 11.49668 -10.48012 11.36385 6.095357 5.668728 -22.09798 -3.043072 -89.8508 26.69905 17.31146 -5.749484e-11 2.037205e-10 -24.59885 5.498721 13.70826 8.78497
2.612962 102.3168 29.01156 -0.5243947 1.3921 3.576693 6.073033 -25.58847 6.528059 -3.069931e-10 22.18105 -1.63434e-11 -6.860811 -7.131958 -3.212316 -5.457506 11.67095 -15.97806 -1.1388e-10 24.72445 -7.952108e-10 2.505022 -15.61008 16.64991 -1.993014 -2.074639 4.066717 3.188646 9.967458 -9.15078 0.7499402 20.59824 7.47724 3.894206 -25.2216 8.205037 6.160975 -17.67907 11.87356 89.36379 36.11053 -24.39912 -4.124018e-10 3.287531e-10 11.12723 -10.77287 11.62977 6.083623 5.255575 -21.9311 -3.148308 -89.74788 26.3891 17.54748 -1.129489e-10 2.986627e-10 -24.05912 5.348597 13.22879 9.080148
2.756747 103.0191 32.99376 -0.5639035 0.7609623 3.518403 6.503987 -22.61294 6.828719 -4.943971e-10 22.30314 -5.322087e-11 -6.97271 -6.951583 -3.280988 -5.257286 9.323985 -15.08478 -2.426653e-10 32.74181 -9.853518e-10 1.545557 -13.45864 16.17368 -1.638654 -1.871111 4.436189 3.065314 10.24054 -8.82894 0.8560444 20.72075 7.246684 3.877674 -24.96097 7.972924 6.191548 -17.45313 12.00801 89.03361 35.8917 -23.90866 -4.573716e-10 3.661313e-10 10.908 -10.99139 11.8329 6.040208 4.78823 -21.64144 -3.190623 -89.96007 26.12607 18.04458 -1.666267e-10 3.559859e-10 -23.11752 5.146791 12.81727 9.402684
2.86693 104.0553 37.16454 -0.6200492 0.09197949 3.261724 6.936305 -18.74359 7.087775 -5.698105e-10 21.52286 -1.1779e-10 -7.172879 -7.553551 -3.264542 -4.874776 6.076441 -14.1655 -4.06984e-10 40.46584 -9.775208e-10 0.5753438 -11.10304 15.93573 -1.245489 -1.63321 4.898804 2.914207 10.42897 -8.369796 0.9955349 20.87515 6.92048 3.814771 -24.62547 7.699838 6.117911 -17.38113 12.1183 88.24871 35.60149 -22.867 -4.07248e-10 3.478845e-10 11.04706 -11.12952 11.92516 6.024161 4.324395 -21.20127 -3.138475 -90.3481 25.89795 18.86155 -2.068401e-10 3.630946e-10 -21.75597 4.888194 12.50865 9.708863
2.950398 105.3022 41.52193 -0.6572417 -0.581153 2.798402 7.252672 -14.39092 7.226483 -5.830745e-10 20.01039 -1.738345e-10 -7.231648 -8.64419 -3.207763 -4.337335 2.211175 -13.11676 -5.29841e-10 46.85404 -8.797407e-10 -0.330572 -8.827991 15.89038 -0.8756697 -1.380244 5.436663 2.726665 10.58109 -7.848912 1.14438 21.02578 6.557586 3.704753 -24.19179 7.416127 5.932743 -17.51693 12.21905 87.27463 35.18228 -21.44997 -3.301762e-10 3.026882e-10 11.5897 -11.48886 12.06649 6.193762 3.924112 -20.71846 -3.053517 -90.85237 25.56062 19.84355 -2.274471e-10 3.388005e-10 -20.33404 4.578873 12.15867 10.02431
3.03343 106.5953 46.04233 -0.6561651 -1.16297 2.161611 7.340358 -9.851523 7.214448 -5.519475e-10 18.18092 -2.004745e-10 -7.074772 -10.03403 -3.056612 -3.696455 -2.032321 -12.02717 -5.510572e-10 50.48124 -7.783362e-10 -1.004649 -6.926331 16.06243 -0.601934 -1.159697 6.012283 2.498053 10.68856 -7.305599 1.270749 21.10874 6.211922 3.557279 -23.68976 7.1491 5.652652 -17.93391 12.2951 86.05533 34.66403 -19.64012 -2.597694e-10 2.530166e-10 12.63041 -12.14463 12.25616 6.632146 3.624573 -20.20268 -2.946579 -91.37824 25.09622 20.99886 -2.259031e-10 2.979617e-10 -18.91783 4.219592 11.75639 10.35112
3.138463 107.736 50.68489 -0.6134455 -1.609968 1.40321 7.192951 -5.636496 7.031977 -4.605958e-10 16.0806 -1.927671e-10 -6.715115 -11.6034 -2.81358 -3.003231 -6.159074 -10.98946 -4.466796e-10 50.65301 -6.746367e-10 -1.360913 -5.651136 16.41623 -0.4556256 -0.9935305 6.544623 2.246815 10.71905 -6.783986 1.365151 21.10547 5.905157 3.373881 -23.12514 6.920319 5.259307 -18.57971 12.31099 84.63852 34.01036 -17.57124 -1.901909e-10 1.95233e-10 14.05088 -13.02871 12.43548 7.291908 3.477525 -19.6994 -2.836781 -91.73938 24.52701 22.11661 -1.97111e-10 2.36387e-10 -17.64742 3.883916 11.36374 10.57274
3.311097 108.4816 55.46583 -0.4794406 -1.9373 0.6014894 6.722485 -1.866101 6.706618 -3.295256e-10 14.00668 -1.276595e-10 -5.916109 -13.24001 -2.520321 -2.301927 -10.11433 -9.958197 -1.316687e-10 46.69553 -6.445864e-10 -1.386671 -5.191529 16.96145 -0.4929947 -0.8802549 7.048403 1.954253 10.70027 -6.317735 1.423642 21.04604 5.684452 3.151356 -22.47884 6.777266 4.766747 -19.51298 12.28411 83.34078 33.2259 -15.34875 -1.586049e-10 1.433885e-10 15.96933 -14.41035 12.73056 8.333535 3.52006 -19.25059 -2.749527 -92.10041 23.80385 23.17392 -1.375252e-10 1.64055e-10 -16.72524 3.507688 10.8588 10.81663
3.579456 108.7181 60.29615 -0.3128221 -2.062416 -0.1824732 6.060721 1.307667 6.346403 -1.560471e-10 12.36306 -4.074695e-11 -5.0495 -14.82394 -2.097254 -1.704709 -13.57218 -9.218339 1.983157e-10 39.7258 -5.562846e-10 -1.059347 -5.349315 17.63162 -0.6633199 -0.8520169 7.448976 1.668391 10.57789 -5.898493 1.436181 20.87485 5.534603 2.929768 -21.87372 6.687952 4.267025 -20.55226 12.1757 81.76749 32.45922 -12.99534 -1.259573e-10 9.859017e-11 18.067 -15.73049 12.88322 9.435484 3.66091 -18.76411 -2.633019 -92.21294 23.1647 24.20493 -6.51239e-11 8.967952e-11 -15.82104 3.139932 10.45082 10.99833
3.966737 108.4003 65.17213 -0.1051296 -2.101897 -0.8979981 5.272512 3.868622 6.00947 -4.235202e-12 11.39707 6.619758e-11 -4.039149 -16.07847 -1.662308 -1.23776 -16.46328 -8.63327 5.554945e-10 31.35437 -4.848958e-10 -0.5570371 -5.912289 18.31866 -0.9280019 -0.869333 7.77395 1.387516 10.44527 -5.557041 1.419864 20.67161 5.46733 2.725164 -21.31233 6.661501 3.810358 -21.59787 12.04541 80.39043 31.73661 -10.83091 -1.345628e-10 7.637712e-11 20.15561 -17.13704 13.03711 10.60776 3.856195 -18.3234 -2.540841 -92.25957 22.55623 25.11367 7.704803e-12 3.360146e-11 -15.12761 2.769709 10.01677 11.21374
